<?xml version="1.0" encoding="utf-8"?>
<!-- Generator: Adobe Illustrator 16.0.2, SVG Export Plug-In . SVG Version: 6.00 Build 0)  -->
<!DOCTYPE svg PUBLIC "-//W3C//DTD SVG 1.0//EN" "http://www.w3.org/TR/2001/REC-SVG-20010904/DTD/svg10.dtd">
<svg xmlns="http://www.w3.org/2000/svg" xmlns:xlink="http://www.w3.org/1999/xlink" x="0px" y="0px"
	 width="35px" height="35px" viewBox="0 0 35 35" enable-background="new 0 0 35 35" xml:space="preserve">
	 
<g transform="translate(0, 0) scale(0.100000,0.100000)">
<polygon id = "burger_m" points="92.8,187.9 65.9,187.9 37.7,187.9 37.7,169.1 37.7,150.2 73.7,150.2 122.5,150.2 175.0,150.2 224.4,150.2 250.6,150.2 263.7,150.2 286.3,150.2 306.9,150.2 306.9,169.1 306.9,187.9 288.7,187.9 266.9,187.9 230.6,187.9 175.0,187.9 140.3,187.9 110.3,187.9 92.8,187.9"></polygon>
 <animate id="toCross" 
    xlink:href="#burger_m"
    attributeName="points"
    to="80.8,269.2 65.8,250.8 108.8,210.5 147.0,171.8 108.2,132.5 70.0,90.0 97.5,61.9 175.0,140.0 217.5,99.1 256.8,58.2 268.2,72.7 280.0,91.0 242.3,132.5 204.6,169.6 237.5,204.6 280.0,252.5 255.0,280.0 216.5,242.9 176.1,204.6 135.2,242.3 90.0,280.0 80.8,269.2" 
    dur="150ms"
    fill="freeze" 
	begin="indefinite"
   ></animate>
   <animate id="toBar" 
    xlink:href="#burger_m"
    attributeName="points"
    to="92.8,187.9 65.9,187.9 37.7,187.9 37.7,169.1 37.7,150.2 73.7,150.2 122.5,150.2 175.0,150.2 224.4,150.2 250.6,150.2 263.7,150.2 286.3,150.2 306.9,150.2 306.9,169.1 306.9,187.9 288.7,187.9 266.9,187.9 230.6,187.9 175.0,187.9 140.3,187.9 110.3,187.9 92.8,187.9" 
    dur="150ms"
    fill="freeze" 
	begin="indefinite"
	></animate>
<path id="burger_up" d="M37.69,261.152v-18.848H172.31h134.614v18.848V280H172.31H37.69V261.152z"></path>
<path id="burger_down" d="M37.69,83.462V64.614H172.31h134.614v18.848v18.848H172.31H37.69V83.462z"></path>
	
</g>
</svg>